<svg width="200" height="100" viewBox="0 0 365 111" fill="none" xmlns="http://www.w3.org/2000/svg">
<rect width="0" height="0" fill="#F5F5F5"/>
<rect width="0" height="0" fill="white"/>
<g style="mix-blend-mode:darken">
<g filter="url(#filter0_i_0_1)">
<rect x="9" y="26" width="66" height="67" fill="#0088FF"/>
</g>
<rect x="9.5" y="26.5" width="65" height="66" stroke="black"/>
<rect x="9.5" y="26.5" width="65" height="66" stroke="black" stroke-opacity="0.2"/>
</g>
<path d="M33.1761 44.9091H39.2557V65.1932C39.2557 67.0682 38.8343 68.697 37.9915 70.0795C37.1581 71.4621 35.9981 72.5275 34.5114 73.2756C33.0246 74.0237 31.2964 74.3977 29.3267 74.3977C27.5748 74.3977 25.9839 74.09 24.554 73.4744C23.1335 72.8494 22.0066 71.9025 21.1733 70.6335C20.34 69.3551 19.928 67.75 19.9375 65.8182H26.0597C26.0786 66.5852 26.2348 67.2434 26.5284 67.7926C26.8314 68.3324 27.2434 68.7491 27.7642 69.0426C28.2945 69.3267 28.9195 69.4688 29.6392 69.4688C30.3968 69.4688 31.036 69.3078 31.5568 68.9858C32.0871 68.6544 32.4896 68.1714 32.7642 67.5369C33.0388 66.9025 33.1761 66.1212 33.1761 65.1932V44.9091ZM43.233 49.9801V44.9091H67.125V49.9801H58.2188V74H52.1392V49.9801H43.233Z" fill="#F5F5F5"/>
<path d="M118.759 43.8182H124.23V62.0739C124.23 63.7614 123.851 65.2273 123.092 66.4716C122.342 67.7159 121.298 68.6747 119.96 69.348C118.622 70.0213 117.067 70.358 115.294 70.358C113.717 70.358 112.286 70.081 110.999 69.527C109.72 68.9645 108.706 68.1122 107.956 66.9702C107.206 65.8196 106.835 64.375 106.844 62.6364H112.354C112.371 63.3267 112.511 63.919 112.776 64.4134C113.048 64.8991 113.419 65.2741 113.888 65.5384C114.365 65.794 114.928 65.9219 115.575 65.9219C116.257 65.9219 116.832 65.777 117.301 65.4872C117.778 65.1889 118.141 64.7543 118.388 64.1832C118.635 63.6122 118.759 62.9091 118.759 62.0739V43.8182ZM152.866 56.9091C152.866 59.7642 152.325 62.1932 151.243 64.196C150.169 66.1989 148.703 67.7287 146.845 68.7855C144.996 69.8338 142.916 70.358 140.607 70.358C138.28 70.358 136.192 69.8295 134.342 68.7727C132.493 67.7159 131.031 66.1861 129.957 64.1832C128.884 62.1804 128.347 59.7557 128.347 56.9091C128.347 54.054 128.884 51.625 129.957 49.6222C131.031 47.6193 132.493 46.0937 134.342 45.0455C136.192 43.9886 138.28 43.4602 140.607 43.4602C142.916 43.4602 144.996 43.9886 146.845 45.0455C148.703 46.0937 150.169 47.6193 151.243 49.6222C152.325 51.625 152.866 54.054 152.866 56.9091ZM147.254 56.9091C147.254 55.0597 146.977 53.5 146.423 52.2301C145.878 50.9602 145.107 49.9972 144.109 49.3409C143.112 48.6847 141.945 48.3565 140.607 48.3565C139.268 48.3565 138.101 48.6847 137.104 49.3409C136.107 49.9972 135.331 50.9602 134.777 52.2301C134.232 53.5 133.959 55.0597 133.959 56.9091C133.959 58.7585 134.232 60.3182 134.777 61.5881C135.331 62.858 136.107 63.821 137.104 64.4773C138.101 65.1335 139.268 65.4616 140.607 65.4616C141.945 65.4616 143.112 65.1335 144.109 64.4773C145.107 63.821 145.878 62.858 146.423 61.5881C146.977 60.3182 147.254 58.7585 147.254 56.9091ZM156.967 70V43.8182H167.45C169.376 43.8182 170.983 44.1037 172.27 44.6747C173.556 45.2457 174.524 46.0384 175.172 47.0526C175.819 48.0582 176.143 49.2173 176.143 50.5298C176.143 51.5526 175.939 52.4517 175.529 53.2273C175.12 53.9943 174.558 54.625 173.842 55.1193C173.135 55.6051 172.325 55.9503 171.413 56.1548V56.4105C172.41 56.4531 173.343 56.7344 174.213 57.2543C175.091 57.7741 175.802 58.5028 176.348 59.4403C176.893 60.3693 177.166 61.4773 177.166 62.7642C177.166 64.1534 176.821 65.3935 176.13 66.4844C175.449 67.5668 174.439 68.4233 173.1 69.054C171.762 69.6847 170.113 70 168.153 70H156.967ZM162.502 65.4744H167.015C168.558 65.4744 169.683 65.1804 170.39 64.5923C171.098 63.9957 171.451 63.2031 171.451 62.2145C171.451 61.4901 171.277 60.8509 170.927 60.2969C170.578 59.7429 170.079 59.3082 169.431 58.9929C168.792 58.6776 168.029 58.5199 167.143 58.5199H162.502V65.4744ZM162.502 54.7741H166.606C167.365 54.7741 168.038 54.642 168.626 54.3778C169.223 54.1051 169.691 53.7216 170.032 53.2273C170.382 52.733 170.556 52.1406 170.556 51.4503C170.556 50.5043 170.22 49.7415 169.547 49.1619C168.882 48.5824 167.936 48.2926 166.708 48.2926H162.502V54.7741ZM188.103 48.3821V43.8182H209.605V48.3821H201.59V70H196.118V48.3821H188.103ZM213.147 70V43.8182H223.476C225.453 43.8182 227.141 44.1719 228.539 44.8793C229.945 45.5781 231.015 46.571 231.748 47.858C232.489 49.1364 232.86 50.6406 232.86 52.3707C232.86 54.1094 232.485 55.6051 231.735 56.858C230.985 58.1023 229.898 59.0568 228.475 59.7216C227.06 60.3864 225.347 60.7188 223.336 60.7188H216.419V56.2699H222.441C223.498 56.2699 224.375 56.125 225.074 55.8352C225.773 55.5455 226.293 55.1108 226.634 54.5312C226.983 53.9517 227.158 53.2315 227.158 52.3707C227.158 51.5014 226.983 50.7685 226.634 50.1719C226.293 49.5753 225.769 49.1236 225.061 48.8168C224.363 48.5014 223.48 48.3438 222.415 48.3438H218.682V70H213.147ZM227.286 58.0852L233.793 70H227.682L221.316 58.0852H227.286ZM241.284 70H235.353L244.391 43.8182H251.525L260.55 70H254.618L248.06 49.8011H247.855L241.284 70ZM240.914 59.7088H254.925V64.0298H240.914V59.7088ZM285.572 52.9844H279.972C279.87 52.2599 279.661 51.6165 279.346 51.054C279.031 50.483 278.626 49.9972 278.131 49.5966C277.637 49.196 277.066 48.8892 276.418 48.6761C275.779 48.4631 275.085 48.3565 274.335 48.3565C272.979 48.3565 271.799 48.6932 270.793 49.3665C269.788 50.0312 269.008 51.0028 268.454 52.2812C267.9 53.5511 267.623 55.0937 267.623 56.9091C267.623 58.7756 267.9 60.3437 268.454 61.6136C269.016 62.8835 269.8 63.8423 270.806 64.4901C271.812 65.1378 272.975 65.4616 274.296 65.4616C275.038 65.4616 275.724 65.3636 276.354 65.1676C276.994 64.9716 277.56 64.6861 278.055 64.3111C278.549 63.9276 278.958 63.4631 279.282 62.9176C279.614 62.3722 279.844 61.75 279.972 61.0511L285.572 61.0767C285.427 62.2784 285.065 63.4375 284.485 64.554C283.914 65.6619 283.143 66.6548 282.171 67.5327C281.208 68.402 280.058 69.0923 278.719 69.6037C277.39 70.1065 275.886 70.358 274.207 70.358C271.871 70.358 269.783 69.8295 267.942 68.7727C266.11 67.7159 264.661 66.1861 263.596 64.1832C262.539 62.1804 262.011 59.7557 262.011 56.9091C262.011 54.054 262.548 51.625 263.621 49.6222C264.695 47.6193 266.153 46.0937 267.994 45.0455C269.835 43.9886 271.906 43.4602 274.207 43.4602C275.724 43.4602 277.13 43.6733 278.425 44.0994C279.729 44.5256 280.884 45.1477 281.89 45.9659C282.896 46.7756 283.714 47.7685 284.344 48.9446C284.984 50.1207 285.393 51.4673 285.572 52.9844ZM289.541 70V43.8182H295.077V55.3622H295.422L304.844 43.8182H311.479L301.763 55.5412L311.594 70H304.972L297.8 59.2358L295.077 62.5597V70H289.541ZM314.362 70V43.8182H332.004V48.3821H319.897V54.6207H331.096V59.1847H319.897V65.4361H332.055V70H314.362ZM336.404 70V43.8182H346.734C348.711 43.8182 350.399 44.1719 351.797 44.8793C353.203 45.5781 354.272 46.571 355.005 47.858C355.747 49.1364 356.118 50.6406 356.118 52.3707C356.118 54.1094 355.743 55.6051 354.993 56.858C354.243 58.1023 353.156 59.0568 351.733 59.7216C350.318 60.3864 348.605 60.7188 346.593 60.7188H339.677V56.2699H345.699C346.755 56.2699 347.633 56.125 348.332 55.8352C349.031 55.5455 349.551 55.1108 349.892 54.5312C350.241 53.9517 350.416 53.2315 350.416 52.3707C350.416 51.5014 350.241 50.7685 349.892 50.1719C349.551 49.5753 349.027 49.1236 348.319 48.8168C347.62 48.5014 346.738 48.3438 345.673 48.3438H341.94V70H336.404ZM350.544 58.0852L357.051 70H350.94L344.574 58.0852H350.544Z" fill="#0088FF"/>
<defs>
<filter id="filter0_i_0_1" x="9" y="26" width="66" height="71" filterUnits="userSpaceOnUse" color-interpolation-filters="sRGB">
<feFlood flood-opacity="0" result="BackgroundImageFix"/>
<feBlend mode="normal" in="SourceGraphic" in2="BackgroundImageFix" result="shape"/>
<feColorMatrix in="SourceAlpha" type="matrix" values="0 0 0 0 0 0 0 0 0 0 0 0 0 0 0 0 0 0 127 0" result="hardAlpha"/>
<feOffset dy="4"/>
<feGaussianBlur stdDeviation="2"/>
<feComposite in2="hardAlpha" operator="arithmetic" k2="-1" k3="1"/>
<feColorMatrix type="matrix" values="0 0 0 0 0 0 0 0 0 0 0 0 0 0 0 0 0 0 0.25 0"/>
<feBlend mode="normal" in2="shape" result="effect1_innerShadow_0_1"/>
</filter>
</defs>
</svg>
